<svg xmlns="http://www.w3.org/2000/svg" width="1800" height="980" viewBox="0 0 1800 980" role="img" aria-labelledby="title desc">
  <title id="title">ResumeBuilder Architecture</title>
  <desc id="desc">Complete architecture diagram showing user traffic, AWS infrastructure, application containers, data stores, monitoring, and CI/CD.</desc>
  <defs>
    <style>
      .bg { fill: #f8fafc; }
      .title { font: 700 28px Arial, sans-serif; fill: #0f172a; }
      .subtitle { font: 600 15px Arial, sans-serif; fill: #334155; }
      .box-title { font: 700 14px Arial, sans-serif; fill: #0f172a; }
      .box-text { font: 400 12px Arial, sans-serif; fill: #1f2937; }
      .layer-title { font: 700 16px Arial, sans-serif; fill: #0f172a; }
      .small { font: 400 11px Arial, sans-serif; fill: #475569; }
      .line-label { font: 600 11px Arial, sans-serif; fill: #334155; }
      .stroke-app { stroke: #2563eb; stroke-width: 2; fill: #eff6ff; }
      .stroke-data { stroke: #7c3aed; stroke-width: 2; fill: #f5f3ff; }
      .stroke-ops { stroke: #dc2626; stroke-width: 2; fill: #fef2f2; }
      .stroke-ci { stroke: #0f766e; stroke-width: 2; fill: #f0fdfa; }
      .stroke-aws { stroke: #d97706; stroke-width: 2; fill: #fffbeb; }
      .panel { stroke: #94a3b8; stroke-width: 1.5; fill: #ffffff; }
    </style>
    <marker id="arrow" markerWidth="10" markerHeight="10" refX="9" refY="3" orient="auto" markerUnits="strokeWidth">
      <path d="M0,0 L10,3 L0,6 Z" fill="#475569" />
    </marker>
  </defs>

  <rect class="bg" x="0" y="0" width="1800" height="980" />
  <text class="title" x="40" y="52">ResumeBuilder - Full Architecture (Backend + DevOps)</text>
  <text class="subtitle" x="40" y="78">Runtime traffic, data flow, monitoring, CI/CD, and Terraform-based AWS deployment</text>

  <rect class="panel" x="30" y="110" rx="10" ry="10" width="1740" height="840" />

  <text class="layer-title" x="70" y="160">Client and Edge</text>
  <rect class="stroke-app" x="60" y="180" rx="10" ry="10" width="240" height="88" />
  <text class="box-title" x="80" y="212">End User</text>
  <text class="box-text" x="80" y="232">Browser / Mobile</text>

  <rect class="stroke-aws" x="350" y="180" rx="10" ry="10" width="300" height="88" />
  <text class="box-title" x="370" y="212">AWS ALB</text>
  <text class="box-text" x="370" y="232">Public HTTP/HTTPS entry</text>

  <line x1="300" y1="224" x2="350" y2="224" stroke="#475569" stroke-width="2" marker-end="url(#arrow)" />
  <text class="line-label" x="306" y="212">HTTPS</text>

  <text class="layer-title" x="70" y="325">Application Runtime (EC2 + Docker Compose)</text>
  <rect class="stroke-aws" x="60" y="345" rx="12" ry="12" width="1010" height="300" />
  <text class="box-title" x="80" y="372">AWS VPC (10.20.0.0/16) - Public Subnet A (EC2 Host)</text>

  <rect class="panel" x="90" y="390" rx="10" ry="10" width="950" height="230" />
  <text class="box-title" x="110" y="414">Docker Compose on EC2 (Amazon Linux 2023)</text>

  <rect class="stroke-app" x="120" y="440" rx="10" ry="10" width="260" height="140" />
  <text class="box-title" x="140" y="468">Frontend Container</text>
  <text class="box-text" x="140" y="488">React + Vite build</text>
  <text class="box-text" x="140" y="506">Nginx serves SPA</text>
  <text class="box-text" x="140" y="524">Proxies /api and /uploads</text>

  <rect class="stroke-app" x="430" y="440" rx="10" ry="10" width="260" height="140" />
  <text class="box-title" x="450" y="468">Backend Container</text>
  <text class="box-text" x="450" y="488">Node.js + Express APIs</text>
  <text class="box-text" x="450" y="506">JWT auth + Multer uploads</text>
  <text class="box-text" x="450" y="524">/metrics endpoint</text>

  <rect class="stroke-data" x="740" y="440" rx="10" ry="10" width="260" height="140" />
  <text class="box-title" x="760" y="468">Docker Volume</text>
  <text class="box-text" x="760" y="488">uploads/ persistent files</text>

  <line x1="650" y1="224" x2="250" y2="440" stroke="#475569" stroke-width="2" marker-end="url(#arrow)" />
  <text class="line-label" x="470" y="318">forward to target group</text>

  <line x1="380" y1="510" x2="430" y2="510" stroke="#475569" stroke-width="2" marker-end="url(#arrow)" />
  <text class="line-label" x="392" y="498">/api, /uploads</text>

  <line x1="690" y1="510" x2="740" y2="510" stroke="#475569" stroke-width="2" marker-end="url(#arrow)" />
  <text class="line-label" x="700" y="498">file I/O</text>

  <text class="layer-title" x="1130" y="160">Data Services</text>
  <rect class="stroke-data" x="1120" y="180" rx="10" ry="10" width="280" height="110" />
  <text class="box-title" x="1140" y="212">MongoDB Atlas</text>
  <text class="box-text" x="1140" y="232">Users and Resumes collections</text>
  <text class="box-text" x="1140" y="250">Mongoose CRUD operations</text>

  <rect class="stroke-data" x="1450" y="180" rx="10" ry="10" width="280" height="110" />
  <text class="box-title" x="1470" y="212">Upstash Redis</text>
  <text class="box-text" x="1470" y="232">Read cache layer</text>
  <text class="box-text" x="1470" y="250">getOrSetCache + invalidation</text>

  <line x1="690" y1="458" x2="1120" y2="240" stroke="#475569" stroke-width="2" marker-end="url(#arrow)" />
  <text class="line-label" x="885" y="308">Mongoose CRUD</text>

  <line x1="690" y1="540" x2="1450" y2="240" stroke="#475569" stroke-width="2" marker-end="url(#arrow)" />
  <text class="line-label" x="1060" y="400">cache reads/writes</text>

  <text class="layer-title" x="1130" y="355">Observability</text>
  <rect class="stroke-ops" x="1120" y="375" rx="10" ry="10" width="280" height="110" />
  <text class="box-title" x="1140" y="407">Prometheus</text>
  <text class="box-text" x="1140" y="427">Scrapes /metrics endpoint</text>

  <rect class="stroke-ops" x="1450" y="375" rx="10" ry="10" width="280" height="110" />
  <text class="box-title" x="1470" y="407">Grafana</text>
  <text class="box-text" x="1470" y="427">Dashboard visualizations</text>

  <line x1="690" y1="575" x2="1120" y2="430" stroke="#475569" stroke-width="2" marker-end="url(#arrow)" />
  <text class="line-label" x="876" y="528">/metrics</text>

  <line x1="1400" y1="430" x2="1450" y2="430" stroke="#475569" stroke-width="2" marker-end="url(#arrow)" />
  <text class="line-label" x="1408" y="418">datasource</text>

  <text class="layer-title" x="70" y="700">CI/CD and Infrastructure Automation</text>

  <rect class="stroke-ci" x="60" y="720" rx="10" ry="10" width="280" height="120" />
  <text class="box-title" x="80" y="752">GitHub Repository</text>
  <text class="box-text" x="80" y="772">Push to main triggers workflow</text>

  <rect class="stroke-ci" x="390" y="720" rx="10" ry="10" width="280" height="120" />
  <text class="box-title" x="410" y="752">GitHub Actions</text>
  <text class="box-text" x="410" y="772">Buildx build + cache</text>
  <text class="box-text" x="410" y="790">Push latest and commit SHA tags</text>

  <rect class="stroke-ci" x="720" y="720" rx="10" ry="10" width="280" height="120" />
  <text class="box-title" x="740" y="752">Docker Hub</text>
  <text class="box-text" x="740" y="772">Frontend and Backend images</text>

  <rect class="stroke-ci" x="1050" y="720" rx="10" ry="10" width="280" height="120" />
  <text class="box-title" x="1070" y="752">Terraform</text>
  <text class="box-text" x="1070" y="772">VPC, ALB, EC2, SG, user_data</text>

  <rect class="stroke-ci" x="1380" y="720" rx="10" ry="10" width="350" height="120" />
  <text class="box-title" x="1400" y="752">EC2 Bootstrap (user_data)</text>
  <text class="box-text" x="1400" y="772">Installs Docker + Compose</text>
  <text class="box-text" x="1400" y="790">docker compose pull and up -d</text>

  <line x1="340" y1="780" x2="390" y2="780" stroke="#475569" stroke-width="2" marker-end="url(#arrow)" />
  <line x1="670" y1="780" x2="720" y2="780" stroke="#475569" stroke-width="2" marker-end="url(#arrow)" />
  <line x1="1000" y1="780" x2="1050" y2="780" stroke="#475569" stroke-width="2" marker-end="url(#arrow)" />
  <line x1="1330" y1="780" x2="1380" y2="780" stroke="#475569" stroke-width="2" marker-end="url(#arrow)" />

  <text class="small" x="70" y="900">Legend: Blue = Application, Purple = Data layer (MongoDB + Redis), Red = Monitoring, Teal = CI/CD + IaC, Amber = AWS edge/runtime.</text>
</svg>
